<svg width="19" height="19" viewBox="0 0 19 19" fill="none" xmlns="http://www.w3.org/2000/svg">
<path d="M17.0945 5.70242C17.0043 5.36786 16.8281 5.06276 16.5833 4.81747C16.3386 4.57218 16.0339 4.39527 15.6996 4.30434C14.4598 3.96392 9.50002 3.95838 9.50002 3.95838C9.50002 3.95838 4.54102 3.95284 3.30048 4.27821C2.96633 4.37333 2.66225 4.55275 2.41742 4.79924C2.1726 5.04573 1.99524 5.35102 1.90239 5.6858C1.57543 6.92555 1.57227 9.49688 1.57227 9.49688C1.57227 9.49688 1.5691 12.0809 1.89368 13.308C2.07577 13.9864 2.61014 14.5224 3.28939 14.7053C4.54181 15.0457 9.48814 15.0512 9.48814 15.0512C9.48814 15.0512 14.4479 15.0568 15.6877 14.7322C16.0222 14.6414 16.3271 14.4649 16.5725 14.2201C16.8178 13.9753 16.995 13.6707 17.0866 13.3365C17.4143 12.0975 17.4167 9.52696 17.4167 9.52696C17.4167 9.52696 17.4325 6.94217 17.0945 5.70242ZM7.91352 11.879L7.91748 7.12901L12.0397 9.50796L7.91352 11.879Z" fill="black"/>
</svg>
