<svg width="60" height="60" viewBox="0 0 60 60" fill="none" xmlns="http://www.w3.org/2000/svg">
<path d="M13.8475 31.2958C13.9363 30.7036 14.2347 30.163 14.6885 29.7722C15.1422 29.3815 15.7212 29.1666 16.32 29.1666H27.8466C28.4455 29.1666 29.0244 29.3815 29.4781 29.7722C29.9319 30.163 30.2303 30.7036 30.3191 31.2958L32.0691 42.9625C32.1225 43.3181 32.0985 43.6812 31.9987 44.0267C31.899 44.3723 31.7258 44.6922 31.4911 44.9647C31.2564 45.2373 30.9656 45.4559 30.6387 45.6058C30.3117 45.7557 29.9563 45.8333 29.5966 45.8333H14.57C14.2103 45.8333 13.8549 45.7557 13.5279 45.6058C13.201 45.4559 12.9102 45.2373 12.6755 44.9647C12.4408 44.6922 12.2677 44.3723 12.1679 44.0267C12.0682 43.6812 12.0441 43.3181 12.0975 42.9625L13.8475 31.2958Z" fill="white"/>
<path fill-rule="evenodd" clip-rule="evenodd" d="M17.2867 29.1667H16.32C15.7212 29.1666 15.1423 29.3815 14.6885 29.7723C14.2348 30.163 13.9363 30.7037 13.8475 31.2958L12.0975 42.9625C12.055 43.2458 12.0617 43.525 12.1108 43.79C11.4779 43.4824 10.9443 43.003 10.5711 42.4064C10.1978 41.8099 9.9999 41.1204 10 40.4167V30.4167C9.99924 29.5315 10.3116 28.6746 10.8819 27.9976C11.4522 27.3206 12.2435 26.8671 13.116 26.7174C13.9884 26.5678 14.8856 26.7316 15.6489 27.1798C16.4122 27.628 16.9924 28.3319 17.2867 29.1667Z" fill="white"/>
<path fill-rule="evenodd" clip-rule="evenodd" d="M15 45.8333H29.1667C29.8297 45.8333 30.4656 45.5699 30.9344 45.1011C31.4033 44.6323 31.6667 43.9964 31.6667 43.3333V37.5H12.5V43.3333C12.5 43.9964 12.7634 44.6323 13.2322 45.1011C13.7011 45.5699 14.337 45.8333 15 45.8333Z" fill="#6A462F"/>
<path fill-rule="evenodd" clip-rule="evenodd" d="M10.8333 10C10.6123 10 10.4004 10.0878 10.2441 10.2441C10.0878 10.4004 10 10.6123 10 10.8333V21.6667H35.8333V45.8333H10V49.1667C10 49.3877 10.0878 49.5996 10.2441 49.7559C10.4004 49.9122 10.6123 50 10.8333 50H49.1667C49.3877 50 49.5996 49.9122 49.7559 49.7559C49.9122 49.5996 50 49.3877 50 49.1667V10.8333C50 10.6123 49.9122 10.4004 49.7559 10.2441C49.5996 10.0878 49.3877 10 49.1667 10H10.8333Z" fill="white"/>
<path d="M43.3335 15.8334H41.6668C41.2066 15.8334 40.8335 16.2065 40.8335 16.6667V31.6667C40.8335 32.1269 41.2066 32.5 41.6668 32.5H43.3335C43.7937 32.5 44.1668 32.1269 44.1668 31.6667V16.6667C44.1668 16.2065 43.7937 15.8334 43.3335 15.8334Z" fill="#D0CFCE"/>
<path d="M42.9168 40.8333C44.0674 40.8333 45.0002 39.9006 45.0002 38.75C45.0002 37.5994 44.0674 36.6666 42.9168 36.6666C41.7662 36.6666 40.8335 37.5994 40.8335 38.75C40.8335 39.9006 41.7662 40.8333 42.9168 40.8333Z" fill="#D22F27" stroke="#D0CFCE" stroke-width="2"/>
<path d="M14.1665 24.1666H29.9998V29.1666H14.1665V24.1666Z" fill="white"/>
<path d="M16.32 29.1666C15.7212 29.1666 15.1423 29.3815 14.6885 29.7722C14.2348 30.163 13.9363 30.7036 13.8475 31.2958L12.0975 42.9625C12.055 43.2458 12.0617 43.525 12.1108 43.79C11.4779 43.4824 10.9443 43.0029 10.5711 42.4064C10.1978 41.8098 9.9999 41.1203 10 40.4166V30.4166C10 29.4221 10.3951 28.4682 11.0983 27.765C11.8016 27.0617 12.7554 26.6666 13.75 26.6666" stroke="black" stroke-width="2" stroke-linecap="round"/>
<path d="M9.99984 21.6666H9.1665C9.1665 21.8876 9.2543 22.0996 9.41058 22.2559C9.56686 22.4122 9.77882 22.5 9.99984 22.5V21.6666ZM35.8332 21.6666H36.6665C36.6665 21.4456 36.5787 21.2336 36.4224 21.0774C36.2661 20.9211 36.0542 20.8333 35.8332 20.8333V21.6666ZM35.8332 45.8333V46.6666C36.0542 46.6666 36.2661 46.5788 36.4224 46.4225C36.5787 46.2663 36.6665 46.0543 36.6665 45.8333H35.8332ZM9.99984 45.8333V45C9.77882 45 9.56686 45.0878 9.41058 45.244C9.2543 45.4003 9.1665 45.6123 9.1665 45.8333H9.99984ZM10.8332 10.8333V9.16663C10.3911 9.16663 9.96722 9.34222 9.65466 9.65478C9.3421 9.96734 9.1665 10.3913 9.1665 10.8333H10.8332ZM10.8332 21.6666V10.8333H9.1665V21.6666H10.8332ZM9.99984 22.5H35.8332V20.8333H9.99984V22.5ZM34.9998 21.6666V45.8333H36.6665V21.6666H34.9998ZM35.8332 45H9.99984V46.6666H35.8332V45ZM10.8332 49.1666V45.8333H9.1665V49.1666H10.8332ZM10.8332 49.1666H9.1665C9.1665 49.6087 9.3421 50.0326 9.65466 50.3451C9.96722 50.6577 10.3911 50.8333 10.8332 50.8333V49.1666ZM49.1665 49.1666H10.8332V50.8333H49.1665V49.1666ZM49.1665 49.1666V50.8333C49.6085 50.8333 50.0325 50.6577 50.345 50.3451C50.6576 50.0326 50.8332 49.6087 50.8332 49.1666H49.1665ZM49.1665 10.8333V49.1666H50.8332V10.8333H49.1665ZM49.1665 10.8333H50.8332C50.8332 10.3913 50.6576 9.96734 50.345 9.65478C50.0325 9.34222 49.6085 9.16663 49.1665 9.16663V10.8333ZM10.8332 10.8333H49.1665V9.16663H10.8332V10.8333Z" fill="black"/>
<path d="M10 21.6666H35.4167" stroke="black" stroke-width="2"/>
<path d="M33.333 21.6666V10.4166" stroke="black" stroke-width="2"/>
<path d="M10 45.8333H50H10Z" fill="black"/>
<path d="M10 45.8333H50" stroke="black" stroke-width="2"/>
<path d="M42.9163 40.8333C42.3638 40.8333 41.8339 40.6138 41.4432 40.2231C41.0525 39.8324 40.833 39.3025 40.833 38.75C40.833 38.1974 41.0525 37.6675 41.4432 37.2768C41.8339 36.8861 42.3638 36.6666 42.9163 36.6666" stroke="black" stroke-width="2" stroke-linecap="round"/>
<path d="M13.8475 31.2958C13.9363 30.7036 14.2347 30.163 14.6885 29.7722C15.1422 29.3815 15.7212 29.1666 16.32 29.1666H27.8466C28.4455 29.1666 29.0244 29.3815 29.4781 29.7722C29.9319 30.163 30.2303 30.7036 30.3191 31.2958L32.0691 42.9625C32.1225 43.3181 32.0985 43.6812 31.9987 44.0267C31.899 44.3723 31.7258 44.6922 31.4911 44.9647C31.2564 45.2373 30.9656 45.4559 30.6387 45.6058C30.3117 45.7557 29.9563 45.8333 29.5966 45.8333H14.57C14.2103 45.8333 13.8549 45.7557 13.5279 45.6058C13.201 45.4559 12.9102 45.2373 12.6755 44.9647C12.4408 44.6922 12.2677 44.3723 12.1679 44.0267C12.0682 43.6812 12.0441 43.3181 12.0975 42.9625L13.8475 31.2958Z" stroke="black" stroke-width="2"/>
<path d="M14.1665 24.1666H29.9998V29.1666H14.1665V24.1666Z" stroke="black" stroke-width="2" stroke-linejoin="round"/>
<path d="M41.6665 16.6666V31.6666V16.6666Z" fill="black"/>
<path d="M41.6665 16.6666V31.6666" stroke="black" stroke-width="2" stroke-linecap="round"/>
<path d="M41.6665 16.6666H43.3332" stroke="black" stroke-width="2" stroke-linecap="round"/>
<path d="M41.6665 31.6666H43.3332" stroke="black" stroke-width="2" stroke-linecap="round"/>
<path d="M41.6665 24.1666H43.3332" stroke="black" stroke-width="2" stroke-linecap="round"/>
</svg>
