<svg width="32" height="32" viewBox="0 0 32 32" fill="none" xmlns="http://www.w3.org/2000/svg">
<path d="M16.4531 12.041C14.2243 12.041 12.4054 13.8599 12.4054 16.0887C12.4054 18.3175 14.2243 20.1363 16.4531 20.1363C18.6818 20.1363 20.5007 18.3175 20.5007 16.0887C20.5007 13.8599 18.6818 12.041 16.4531 12.041ZM28.5929 16.0887C28.5929 14.4125 28.6081 12.7516 28.514 11.0785C28.4199 9.13511 27.9765 7.41039 26.5555 5.98931C25.1313 4.5652 23.4096 4.12491 21.4663 4.03078C19.7902 3.93665 18.1292 3.95183 16.4561 3.95183C14.78 3.95183 13.119 3.93665 11.4459 4.03078C9.50254 4.12491 7.77782 4.56824 6.35674 5.98931C4.93263 7.41343 4.49234 9.13511 4.39821 11.0785C4.30408 12.7546 4.31926 14.4156 4.31926 16.0887C4.31926 17.7618 4.30408 19.4258 4.39821 21.0989C4.49234 23.0422 4.93567 24.7669 6.35674 26.188C7.78086 27.6121 9.50254 28.0524 11.4459 28.1466C13.122 28.2407 14.783 28.2255 16.4561 28.2255C18.1322 28.2255 19.7932 28.2407 21.4663 28.1466C23.4096 28.0524 25.1344 27.6091 26.5555 26.188C27.9796 24.7639 28.4199 23.0422 28.514 21.0989C28.6112 19.4258 28.5929 17.7648 28.5929 16.0887ZM16.4531 22.3165C13.0066 22.3165 10.2252 19.5351 10.2252 16.0887C10.2252 12.6423 13.0066 9.86083 16.4531 9.86083C19.8995 9.86083 22.6809 12.6423 22.6809 16.0887C22.6809 19.5351 19.8995 22.3165 16.4531 22.3165ZM22.936 11.0602C22.1313 11.0602 21.4815 10.4104 21.4815 9.60577C21.4815 8.8011 22.1313 8.15129 22.936 8.15129C23.7406 8.15129 24.3904 8.8011 24.3904 9.60577C24.3907 9.79684 24.3532 9.98608 24.2802 10.1627C24.2072 10.3392 24.1001 10.4997 23.965 10.6348C23.8299 10.7699 23.6694 10.877 23.4928 10.95C23.3163 11.023 23.127 11.0605 22.936 11.0602Z" fill="#E9E9E9"/>
</svg>
