<svg width="49" height="43" viewBox="0 0 49 43" fill="none" xmlns="http://www.w3.org/2000/svg">
<path d="M22.3125 4.5C15.5625 10.1719 12.1875 15.75 12.1875 21.2344C12.1875 26.2031 14.8125 29.9766 20.0625 32.5547C20.0625 35.6016 19.1484 37.9922 17.3203 39.7266C15.5391 41.4141 13.2656 42.2578 10.5 42.2578C7.5 42.2578 5.01562 41.0859 3.04688 38.7422C1.07812 36.3984 0.09375 33.4922 0.09375 30.0234C0.09375 24.6328 1.75781 19.5469 5.08594 14.7656C8.41406 9.9375 13.1016 5.25 19.1484 0.703125L22.3125 4.5ZM48.2578 4.5C41.5078 10.1719 38.1328 15.75 38.1328 21.2344C38.1328 26.2031 40.7578 29.9766 46.0078 32.5547C46.0078 35.6016 45.0938 37.9922 43.2656 39.7266C41.4844 41.4141 39.2109 42.2578 36.4453 42.2578C33.4453 42.2578 30.9609 41.0859 28.9922 38.7422C27.0234 36.3984 26.0391 33.4922 26.0391 30.0234C26.0391 24.6328 27.7031 19.5469 31.0312 14.7656C34.3594 9.9375 39.0469 5.25 45.0938 0.703125L48.2578 4.5Z" fill="white"/>
</svg>
