<svg width="34" height="52" viewBox="0 0 34 52" fill="none" xmlns="http://www.w3.org/2000/svg">
<path d="M33.0333 17.5143C33.0333 8.06993 25.7022 0.387695 16.6886 0.387695C7.67494 0.387695 0.342773 8.06993 0.342773 17.5184C0.345857 17.9898 0.572996 29.2886 13.6648 49.1973C13.9343 49.7432 14.3428 50.2109 14.8502 50.5546C15.3577 50.8982 15.9468 51.1062 16.5601 51.1582C18.4512 51.1582 19.74 49.104 19.8654 48.8952C33.0405 28.9743 33.0405 17.9635 33.0333 17.5143ZM16.6886 24.4118C15.2487 24.4118 13.8412 23.9906 12.644 23.2014C11.4469 22.4123 10.5138 21.2907 9.96284 19.9784C9.41189 18.6661 9.26778 17.2221 9.54876 15.829C9.82973 14.436 10.5232 13.1564 11.5414 12.1521C12.5595 11.1478 13.8568 10.4639 15.269 10.1869C16.6812 9.90993 18.1449 10.0523 19.4751 10.596C20.8053 11.1397 21.9422 12.0603 22.7419 13.2414C23.5417 14.4225 23.9685 15.811 23.9683 17.2314C23.9661 19.1353 23.1984 20.9606 21.8336 22.3067C20.4689 23.6528 18.6185 24.4099 16.6886 24.4118Z" fill="#D22F27"/>
</svg>
