<svg width="21" height="21" viewBox="0 0 21 21" fill="none" xmlns="http://www.w3.org/2000/svg">
<path d="M14.704 7.24107C15.2259 7.24107 15.649 6.81798 15.649 6.29607C15.649 5.77416 15.2259 5.35107 14.704 5.35107C14.1821 5.35107 13.759 5.77416 13.759 6.29607C13.759 6.81798 14.1821 7.24107 14.704 7.24107Z" fill="black"/>
<path d="M10.5001 6.45618C9.70032 6.45618 8.91849 6.69334 8.25349 7.13768C7.58849 7.58202 7.07018 8.21358 6.76412 8.95249C6.45805 9.6914 6.37797 10.5045 6.534 11.2889C6.69003 12.0733 7.07517 12.7939 7.64071 13.3594C8.20624 13.9249 8.92678 14.3101 9.7112 14.4661C10.4956 14.6221 11.3087 14.5421 12.0476 14.236C12.7865 13.9299 13.4181 13.4116 13.8624 12.7466C14.3068 12.0816 14.5439 11.2998 14.5439 10.5C14.5439 9.4275 14.1179 8.39894 13.3595 7.64058C12.6012 6.88222 11.5726 6.45618 10.5001 6.45618ZM10.5001 13.125C9.98094 13.125 9.47342 12.971 9.04174 12.6826C8.61006 12.3942 8.27361 11.9842 8.07493 11.5045C7.87625 11.0249 7.82427 10.4971 7.92555 9.98788C8.02684 9.47868 8.27684 9.01095 8.64396 8.64383C9.01107 8.27672 9.4788 8.02671 9.988 7.92543C10.4972 7.82414 11.025 7.87612 11.5047 8.07481C11.9843 8.27349 12.3943 8.60994 12.6827 9.04162C12.9712 9.4733 13.1251 9.98081 13.1251 10.5C13.1251 11.1962 12.8486 11.8639 12.3563 12.3561C11.864 12.8484 11.1963 13.125 10.5001 13.125Z" fill="black"/>
<path d="M10.5 4.04381C12.6026 4.04381 12.852 4.05169 13.6822 4.08975C14.1815 4.09568 14.676 4.18736 15.1443 4.36078C15.484 4.49183 15.7925 4.69255 16.05 4.95001C16.3075 5.20748 16.5082 5.516 16.6392 5.85572C16.8126 6.32397 16.9043 6.81854 16.9102 7.31784C16.9483 8.148 16.9562 8.39737 16.9562 10.5007C16.9562 12.6039 16.9483 12.852 16.9102 13.6822C16.9043 14.1815 16.8126 14.676 16.6392 15.1443C16.5082 15.484 16.3075 15.7925 16.05 16.05C15.7925 16.3075 15.484 16.5082 15.1443 16.6392C14.676 16.8126 14.1815 16.9043 13.6822 16.9102C12.852 16.9483 12.6026 16.9562 10.5 16.9562C8.39738 16.9562 8.148 16.9483 7.31784 16.9102C6.81854 16.9043 6.32397 16.8126 5.85572 16.6392C5.516 16.5082 5.20748 16.3075 4.95001 16.05C4.69255 15.7925 4.49183 15.484 4.36078 15.1443C4.18736 14.676 4.09568 14.1815 4.08975 13.6822C4.05169 12.852 4.04381 12.6026 4.04381 10.5C4.04381 8.39738 4.05169 8.148 4.08975 7.31784C4.09568 6.81854 4.18736 6.32397 4.36078 5.85572C4.49183 5.516 4.69255 5.20748 4.95001 4.95001C5.20748 4.69255 5.516 4.49183 5.85572 4.36078C6.32397 4.18736 6.81854 4.09568 7.31784 4.08975C8.148 4.05169 8.39738 4.04381 10.5 4.04381ZM10.5 2.625C8.36128 2.625 8.09288 2.63419 7.25287 2.67225C6.59976 2.68544 5.9536 2.80925 5.34188 3.03844C4.81866 3.24076 4.34349 3.55017 3.94683 3.94683C3.55017 4.34349 3.24076 4.81866 3.03844 5.34188C2.80918 5.95381 2.68536 6.60019 2.67225 7.25353C2.63419 8.09353 2.625 8.36062 2.625 10.5C2.625 12.6394 2.63419 12.9071 2.67225 13.7471C2.68544 14.4002 2.80925 15.0464 3.03844 15.6581C3.24076 16.1813 3.55017 16.6565 3.94683 17.0532C4.34349 17.4498 4.81866 17.7592 5.34188 17.9616C5.95381 18.1908 6.60019 18.3146 7.25353 18.3277C8.09353 18.3658 8.36128 18.375 10.5 18.375C12.6387 18.375 12.9071 18.3658 13.7471 18.3277C14.4005 18.3146 15.0468 18.1908 15.6588 17.9616C16.182 17.7592 16.6572 17.4498 17.0538 17.0532C17.4505 16.6565 17.7599 16.1813 17.9622 15.6581C18.1913 15.0462 18.3148 14.3998 18.3277 13.7465C18.3658 12.9065 18.375 12.6394 18.375 10.5C18.375 8.36062 18.3658 8.09288 18.3277 7.25287C18.3146 6.59976 18.1907 5.9536 17.9616 5.34188C17.7592 4.81866 17.4498 4.34349 17.0532 3.94683C16.6565 3.55017 16.1813 3.24076 15.6581 3.03844C15.0462 2.80941 14.3998 2.68581 13.7465 2.67291C12.9065 2.63353 12.6394 2.625 10.5 2.625Z" fill="black"/>
</svg>
