<svg width="426" height="421" viewBox="0 0 426 421" fill="none" xmlns="http://www.w3.org/2000/svg">
<g opacity="0.1">
<path d="M104.21 157.565C84.4419 199.157 118.105 256.489 179.398 285.621C240.691 314.752 306.404 304.651 326.171 263.059C345.939 221.467 312.276 164.135 250.983 135.004C189.69 105.872 123.977 115.974 104.21 157.565Z" fill="#CA9D5C"/>
<path fill-rule="evenodd" clip-rule="evenodd" d="M104.216 157.564C104.244 157.504 104.339 157.53 104.326 157.597C99.6126 196.487 132.974 243.105 187.129 268.844C241.315 294.598 298.565 291.006 325.724 262.754C325.943 262.518 326.315 262.768 326.177 263.057C306.41 304.647 240.697 314.75 179.404 285.619C118.111 256.487 84.4488 199.154 104.216 157.564Z" fill="#6A462F"/>
<path fill-rule="evenodd" clip-rule="evenodd" d="M116.101 163.215C116.101 163.215 171.769 160.519 226.494 186.528C281.033 212.45 314.055 257.104 314.281 257.406C314.122 257.189 297.618 234.909 270.388 221.967C243.027 208.963 215.191 210.31 215.191 210.31C215.191 210.31 187.359 211.659 159.995 198.653C132.634 185.649 116.101 163.215 116.101 163.215Z" fill="#6A462F"/>
<path d="M104.21 157.565C84.4419 199.157 118.105 256.489 179.398 285.621C240.691 314.752 306.404 304.651 326.171 263.059C345.939 221.467 312.276 164.135 250.983 135.004C189.69 105.872 123.977 115.974 104.21 157.565Z" stroke="black" stroke-width="0.75"/>
<path d="M215.191 210.311C215.191 210.311 243.023 208.962 270.388 221.968C297.752 234.974 314.281 257.406 314.281 257.406" stroke="black" stroke-width="0.75" stroke-linecap="round" stroke-linejoin="round"/>
<path d="M215.193 210.311C215.193 210.311 187.361 211.66 159.996 198.654C132.631 185.648 116.103 163.216 116.103 163.216" stroke="black" stroke-width="0.75" stroke-linecap="round" stroke-linejoin="round"/>
</g>
</svg>
