<svg width="49" height="42" viewBox="0 0 49 42" fill="none" xmlns="http://www.w3.org/2000/svg">
<path d="M0.242188 37.7969C6.99219 32.125 10.3672 26.5469 10.3672 21.0625C10.3672 16.0937 7.74219 12.3203 2.49219 9.74219C2.49219 6.69531 3.38281 4.32812 5.16406 2.64062C6.99219 0.90625 9.28906 0.0390625 12.0547 0.0390625C15.0547 0.0390625 17.5391 1.21094 19.5078 3.55469C21.4766 5.89844 22.4609 8.80469 22.4609 12.2734C22.4609 17.6641 20.7969 22.7734 17.4688 27.6016C14.1406 32.3828 9.45312 37.0469 3.40625 41.5938L0.242188 37.7969ZM26.1875 37.7969C32.9375 32.125 36.3125 26.5469 36.3125 21.0625C36.3125 16.0937 33.6875 12.3203 28.4375 9.74219C28.4375 6.69531 29.3281 4.32812 31.1094 2.64062C32.9375 0.90625 35.2344 0.0390625 38 0.0390625C41 0.0390625 43.4844 1.21094 45.4531 3.55469C47.4219 5.89844 48.4062 8.80469 48.4062 12.2734C48.4062 17.6641 46.7422 22.7734 43.4141 27.6016C40.0859 32.3828 35.3984 37.0469 29.3516 41.5938L26.1875 37.7969Z" fill="white"/>
</svg>
