<svg width="12" height="30" viewBox="0 0 12 30" fill="none" xmlns="http://www.w3.org/2000/svg">
<path d="M8.93812 6.80088C9.39175 6.80088 9.80924 6.89 10.1907 7.06833C11.323 7.64815 11.9915 8.75013 12 9.97893V18.4433C11.7876 19.7889 10.2738 19.423 10.2371 18.4433V10.4509C10.1022 9.99515 9.23719 10.1841 9.2165 10.4509V28.7956C8.99655 30.6688 6.6174 30.1189 6.55673 28.7641V17.5308C6.4046 16.8062 5.40339 17.1354 5.38145 17.5622C5.42391 21.2961 5.41238 25.0301 5.41238 28.7641C5.17511 30.6277 2.80753 30.1509 2.75259 28.7956L2.72167 10.4509C2.58301 10.005 1.78146 10.176 1.76288 10.4509V18.4433C1.55047 19.7889 0.0366622 19.423 0 18.4433V9.97893C0.0214026 8.80253 0.445179 7.624 1.45361 7.06833C1.78352 6.89 2.18558 6.80085 2.6598 6.80085L8.93812 6.80088ZM8.90694 2.95693C8.90694 4.59 7.6057 5.91388 6.00055 5.91388C4.39543 5.91388 3.09419 4.59 3.09419 2.95693C3.09417 1.32388 4.3954 0 6.0005 0C7.6057 0 8.90694 1.32388 8.90694 2.95693Z" fill="#E49400"/>
</svg>
