<svg width="35" height="34" viewBox="0 0 35 34" fill="none" xmlns="http://www.w3.org/2000/svg">
<path d="M26.0637 7.06806H9.57414C6.33758 7.06806 3.71582 9.66156 3.71582 12.8614V21.0136C3.71582 24.2134 6.33899 26.8083 9.57414 26.8083H26.0637C29.3002 26.8083 31.922 24.2134 31.922 21.0136V12.8614C31.922 9.66156 29.2988 7.06665 26.0637 7.06665V7.06806ZM22.102 17.3332L14.3894 20.9726C14.3424 20.9952 14.2904 21.0056 14.2382 21.0027C14.1861 20.9999 14.1355 20.9839 14.0912 20.9563C14.047 20.9286 14.0104 20.8902 13.9849 20.8446C13.9595 20.799 13.9459 20.7478 13.9456 20.6956V13.1921C13.9466 13.1396 13.9608 13.0882 13.9869 13.0427C14.0131 12.9972 14.0503 12.9591 14.0952 12.9319C14.14 12.9046 14.1911 12.8892 14.2435 12.887C14.2959 12.8848 14.3481 12.8959 14.3951 12.9193L22.1091 16.7848C22.1605 16.8104 22.2036 16.85 22.2335 16.8991C22.2634 16.9481 22.2789 17.0045 22.2781 17.0619C22.2774 17.1193 22.2605 17.1754 22.2293 17.2236C22.1982 17.2718 22.1541 17.3103 22.102 17.3346V17.3332Z" fill="#DF2424"/>
</svg>
